HIERARCHY
ROOT Hips
{
	OFFSET 0.000000 0.000000 0.000000
	CHANNELS 6 Xposition Yposition Zposition Zrotation Yrotation Xrotation 
	JOINT LHipJoint
	{
		OFFSET 0.000000 0.000000 0.000000
		CHANNELS 3 Zrotation Yrotation Xrotation
		JOINT LeftUpLeg
		{
			OFFSET 1.363060 -1.794630 0.839290
			CHANNELS 3 Zrotation Yrotation Xrotation
			JOINT LeftLeg
			{
				OFFSET 2.448110 -6.726130 0.000000
				CHANNELS 3 Zrotation Yrotation Xrotation
				JOINT LeftFoot
				{
					OFFSET 2.562200 -7.039590 0.000000
					CHANNELS 3 Zrotation Yrotation Xrotation
					JOINT LeftToeBase
					{
						OFFSET 0.157640 -0.433110 2.322550
						CHANNELS 3 Zrotation Yrotation Xrotation
						End Site
						{
							OFFSET 0.000000 0.000000 0.000000
						}
					}
				}
			}
		}
	}
	JOINT RHipJoint
	{
		OFFSET 0.000000 0.000000 0.000000
		CHANNELS 3 Zrotation Yrotation Xrotation
		JOINT RightUpLeg
		{
			OFFSET -1.305520 -1.794630 0.839290
			CHANNELS 3 Zrotation Yrotation Xrotation
			JOINT RightLeg
			{
				OFFSET -2.542530 -6.985550 0.000000
				CHANNELS 3 Zrotation Yrotation Xrotation
				JOINT RightFoot
				{
					OFFSET -2.568260 -7.056230 0.000000
					CHANNELS 3 Zrotation Yrotation Xrotation
					JOINT RightToeBase
					{
						OFFSET -0.164730 -0.452590 2.363150
						CHANNELS 3 Zrotation Yrotation Xrotation
						End Site
						{
							OFFSET 0.000000 0.000000 0.000000
						}
					}
				}
			}
		}
	}
}
MOTION
Frames: 19
Frame Time: 0.008333
15.568721 17.073685 1.027317 14.073549 -88.175795 15.659557 -9.810504 0.184891 1.708390 -8.282708 -1.130229 -35.872631 -2.100249 -0.594774 16.064541 3.068598 13.728643 -12.958700 -0.880800 0.000000 -40.659601 8.492998 0.240950 0.145315 10.225681 -2.384341 -34.053795 2.818236 0.362526 17.655247 -2.851997 -9.373076 -13.441341 0.371200 -0.000000 -59.371400
15.562943 17.018052 1.028664 16.775696 -88.114940 13.777787 -9.656568 0.137636 1.683445 -8.506031 -1.497210 -37.794508 -2.153023 -0.430851 18.304251 3.167645 13.692849 -14.107669 -1.166500 0.000000 -41.153000 8.547389 0.381140 0.145285 10.079681 -2.126329 -36.471354 2.774210 -0.001035 20.810491 -2.949116 -9.239819 -14.799247 0.640701 0.000000 -59.054399
15.557469 16.952124 1.029716 19.538356 -88.033863 11.872771 -9.508227 0.090440 1.651423 -8.756106 -1.828449 -39.853113 -2.209552 -0.241558 20.712716 3.261124 13.594739 -15.321339 -1.465800 0.000000 -41.778600 8.602005 0.523396 0.165274 9.905067 -1.838970 -38.993459 2.718282 -0.384146 24.075646 -3.045120 -9.117172 -16.178902 0.910899 0.000000 -58.629500
15.552366 16.875251 1.030619 22.286902 -87.933630 10.021703 -9.369279 0.043480 1.619906 -9.025908 -2.141730 -42.054703 -2.264315 -0.025152 23.286115 3.351343 13.451399 -16.587496 -1.773100 0.000000 -42.466300 8.654196 0.665429 0.210857 9.700169 -1.516500 -41.614589 2.648105 -0.781351 27.420788 -3.140479 -9.014914 -17.560935 1.178500 -0.000000 -58.094500
15.547103 16.786409 1.031352 25.007009 -87.813079 8.252708 -9.240612 -0.003145 1.599300 -9.308125 -2.465843 -44.411194 -2.311006 0.218081 26.017715 3.442477 13.285870 -17.898448 -2.085501 0.000000 -43.130400 8.703488 0.805504 0.288412 9.460935 -1.155982 -44.342103 2.561579 -1.188123 30.824192 -3.236412 -8.940221 -18.935437 1.442800 -0.000001 -57.456500
15.541698 16.684635 1.031946 27.675745 -87.672045 6.596356 -9.122892 -0.049127 1.599445 -9.594404 -2.825963 -46.931225 -2.343360 0.487736 28.902529 3.538257 13.118327 -19.248671 -2.402600 0.000000 -43.685300 8.749603 0.942518 0.402640 9.184815 -0.758923 -47.181544 2.456817 -1.600604 34.270082 -3.334090 -8.897394 -20.297668 1.704800 0.000000 -56.731000
15.535672 16.569292 1.032642 30.185656 -87.511814 5.159093 -9.018341 -0.095333 1.627367 -9.870476 -3.239940 -49.613907 -2.355150 0.783386 31.934887 3.641140 12.963827 -20.635712 -2.725300 0.000000 -44.053400 8.790694 1.075689 0.552992 8.876337 -0.332732 -50.125001 2.332775 -2.014776 37.741444 -3.434635 -8.889897 -21.644894 1.966200 0.000000 -55.945400
15.529149 16.439490 1.033414 32.535056 -87.330803 3.946499 -8.925686 -0.141470 1.691867 -10.125762 -3.731057 -52.459817 -2.340533 1.102471 35.106285 3.754416 12.839535 -22.058318 -3.056899 -0.000000 -44.170200 8.828267 1.205428 0.740566 8.534987 0.111169 -53.176177 2.188748 -2.428852 41.232782 -3.539132 -8.916940 -22.984379 2.230500 0.000000 -55.132000
15.521687 16.294826 1.034453 34.655663 -87.128582 3.020958 -8.845046 -0.188283 1.797558 -10.345574 -4.311782 -55.456504 -2.294416 1.441985 38.404475 3.879634 12.757132 -23.514520 -3.401000 -0.000001 -43.995400 8.862618 1.332434 0.961125 8.167692 0.556311 -56.322474 2.025008 -2.841114 44.735495 -3.648520 -8.977872 -24.324071 2.501500 0.000000 -54.329000
15.513387 16.134989 1.035834 36.532268 -86.903329 2.391337 -8.774870 -0.236539 1.948042 -10.517406 -4.993376 -58.590611 -2.212681 1.797583 41.814657 4.017974 12.726603 -25.001242 -3.761301 0.000000 -43.516600 8.895337 1.458140 1.210594 7.779405 0.985787 -59.555484 1.842002 -3.251590 48.246918 -3.763700 -9.070683 -25.675955 2.783800 0.000000 -53.571500
15.503957 15.960200 1.037743 38.123029 -86.654819 2.088605 -8.714504 -0.287654 2.142232 -10.626850 -5.775419 -61.835564 -2.092556 2.164192 45.316341 4.168831 12.753886 -26.510657 -4.140400 -0.000000 -42.756300 8.927502 1.583986 1.480996 7.380477 1.382282 -62.851563 1.640701 -3.660173 51.760119 -3.885223 -9.193847 -27.049716 3.081400 0.000001 -52.890500
15.493540 15.771347 1.040405 39.391951 -86.383885 2.129527 -8.662882 -0.343585 2.375155 -10.661405 -6.650070 -65.156906 -1.932711 2.536141 48.884256 4.330399 12.842496 -28.030326 -4.539300 0.000000 -41.766500 8.959968 1.712006 1.762193 6.982775 1.730683 -66.179567 1.422040 -4.067061 55.266210 -4.013327 -9.346700 -28.451345 3.397900 0.000000 -52.308200
15.482177 15.569642 1.043942 40.356835 -86.091864 2.481535 -8.618346 -0.405900 2.640342 -10.613027 -7.605159 -68.519752 -1.733412 2.907280 52.490186 4.500208 12.994366 -29.542476 -4.957600 -0.000000 -40.630300 8.994030 1.843938 2.045890 6.594600 2.022297 -69.509972 1.186206 -4.472491 58.756355 -4.148282 -9.530176 -29.883060 3.736600 0.000000 -51.835500
15.469850 15.357018 1.048418 41.045276 -85.781893 3.097406 -8.579452 -0.475606 2.929087 -10.477460 -8.621648 -71.882640 -1.496533 3.271518 56.101367 4.674977 13.209831 -31.024714 -5.392600 0.000000 -39.446500 9.030535 1.981323 2.323979 6.223121 2.253820 -72.805404 0.932892 -4.875378 62.216237 -4.289852 -9.746578 -31.338832 4.099000 0.000000 -51.474500
15.456062 15.135604 1.053868 41.503313 -85.458058 3.918877 -8.544681 -0.554451 3.230531 -10.254999 -9.678598 -75.209382 -1.225151 3.623664 59.686673 4.851379 13.488487 -32.453478 -5.840799 0.000000 -38.320799 9.069505 2.125744 2.589342 5.870201 2.429570 -76.034326 0.661058 -5.274281 65.631669 -4.437733 -10.000598 -32.806274 4.486200 -0.000000 -51.217600
15.441191 14.908219 1.060220 41.785411 -85.126041 4.872220 -8.512936 -0.642637 3.534289 -9.951391 -10.751867 -78.457755 -0.923617 3.958990 63.212649 5.025921 13.828414 -33.804770 -6.297700 0.000000 -37.346600 9.110794 2.278022 2.837153 5.534134 2.557508 -79.158437 0.369599 -5.665585 68.982830 -4.590872 -10.296995 -34.265746 4.897501 -0.000000 -51.051800
15.425026 14.677978 1.067259 41.943689 -84.791485 5.887185 -8.483313 -0.740594 3.829645 -9.576924 -11.817855 -81.587962 -0.597124 4.273815 66.648335 5.195775 14.227472 -35.059144 -6.759300 -0.000000 -36.594800 9.153675 2.438718 3.063785 5.208289 2.648665 -82.142066 0.057589 -6.044761 72.249290 -4.747767 -10.641367 -35.692755 5.331200 -0.000000 -50.961000
15.407485 14.448124 1.074786 42.028936 -84.460192 6.899260 -8.455449 -0.847913 4.107158 -9.146478 -12.854379 -84.559311 -0.251836 4.565001 69.963371 5.358948 14.682810 -36.203632 -7.222701 -0.000000 -36.098500 9.197477 2.607231 3.267333 4.884099 2.714643 -84.949001 -0.274570 -6.406032 75.407072 -4.906408 -11.038145 -37.060538 5.784700 0.000000 -50.929601
15.388259 14.221844 1.082392 42.085517 -84.137537 7.846753 -8.429018 -0.964654 4.357688 -8.679850 -13.840874 -87.334949 0.105714 4.831067 73.134959 5.514004 15.189559 -37.233672 -7.686000 0.000001 -35.876600 9.241533 2.782385 3.446365 4.552052 2.765701 -87.546292 -0.625263 -6.744005 78.436372 -5.064344 -11.488962 -38.346939 6.254600 -0.000000 -50.935400
